<svg width="38" height="37" viewBox="0 0 38 37" fill="none" xmlns="http://www.w3.org/2000/svg">
<rect width="34.8316" height="34.8316" rx="9" fill="#0D5CB9"/>
<path d="M17.42 11.8916C17.4201 11.5775 17.3583 11.2665 17.2383 10.9763C17.1182 10.6861 16.9422 10.4224 16.7202 10.2003C16.4983 9.97821 16.2348 9.80205 15.9448 9.68191C15.6548 9.56176 15.344 9.49997 15.0301 9.50008H12.6901C12.3737 9.496 12.0597 9.55485 11.7662 9.67319C11.4727 9.79154 11.2056 9.96703 10.9804 10.1895C10.7552 10.4119 10.5764 10.6769 10.4544 10.9691C10.3324 11.2612 10.2695 11.5747 10.2695 11.8914C10.2695 12.208 10.3324 12.5215 10.4544 12.8137C10.5764 13.1058 10.7552 13.3708 10.9804 13.5933C11.2056 13.8157 11.4727 13.9912 11.7662 14.1096C12.0597 14.2279 12.3737 14.2868 12.6901 14.2827H13.1482V15.4373C13.1482 15.4373 17.42 14.8602 17.42 11.8916ZM15.2445 18.208C15.2445 19.0827 14.5365 19.7912 13.6624 19.7912C12.7882 19.7912 12.0802 19.0827 12.0802 18.208C12.0802 17.3332 12.7882 16.6247 13.6624 16.6247C14.5365 16.6247 15.2445 17.3332 15.2445 18.208ZM13.6624 20.5829C12.5402 20.5829 10.3003 21.1489 10.3003 22.2718V23.7494H17.0244V22.2718C17.0244 21.1485 14.7845 20.5829 13.6624 20.5829ZM21.1776 19.7912C22.0517 19.7912 22.7598 19.0827 22.7598 18.208C22.7598 17.3332 22.0517 16.6247 21.1776 16.6247C20.3035 16.6247 19.5954 17.3332 19.5954 18.208C19.5954 19.0827 20.3035 19.7912 21.1776 19.7912ZM21.1776 20.5829C20.0555 20.5829 17.8155 21.1489 17.8155 22.2718V23.7494H24.5397V22.2718C24.5397 21.1485 22.2997 20.5829 21.1776 20.5829ZM20.6009 9.89589C20.287 9.89579 19.9762 9.95757 19.6862 10.0777C19.3962 10.1979 19.1327 10.374 18.9108 10.5961C18.6889 10.8182 18.5128 11.0819 18.3928 11.3721C18.2727 11.6623 18.211 11.9733 18.2111 12.2874C18.2111 15.256 22.0082 15.8331 22.0082 15.8331V14.6785H22.1498C22.4662 14.6826 22.7803 14.6237 23.0738 14.5054C23.3673 14.387 23.6344 14.2116 23.8596 13.9891C24.0847 13.7666 24.2635 13.5016 24.3856 13.2095C24.5076 12.9173 24.5704 12.6038 24.5704 12.2872C24.5704 11.9706 24.5076 11.6571 24.3856 11.3649C24.2635 11.0728 24.0847 10.8078 23.8596 10.5853C23.6344 10.3628 23.3673 10.1874 23.0738 10.069C22.7803 9.95066 22.4662 9.89182 22.1498 9.89589H20.6009Z" fill="white"/>
<circle cx="31.667" cy="30.0828" r="5.83302" fill="#7AB029" stroke="white"/>
<rect x="30.0879" y="28.1383" width="0.973207" height="3.40623" rx="0.486604" fill="white"/>
<rect x="33.002" y="28.1383" width="0.973207" height="3.40623" rx="0.486604" fill="white"/>
<rect x="31.5449" y="26.9185" width="0.973207" height="6.08255" rx="0.486604" fill="white"/>
</svg>
