<svg width="194" height="52" viewBox="0 0 194 52" fill="none" xmlns="http://www.w3.org/2000/svg">
<rect width="194" height="52" rx="26" fill="white"/>
<path d="M72.9973 26.981C72.9973 28.1397 72.7956 29.2177 72.3923 30.215C71.9963 31.2123 71.4353 32.0813 70.7093 32.822C69.9833 33.5553 69.107 34.131 68.0803 34.549C67.061 34.967 65.928 35.176 64.6813 35.176C63.4346 35.176 62.298 34.967 61.2713 34.549C60.2446 34.131 59.3646 33.5553 58.6313 32.822C57.9053 32.0813 57.3406 31.2123 56.9373 30.215C56.5413 29.2177 56.3433 28.1397 56.3433 26.981C56.3433 25.8223 56.5413 24.7443 56.9373 23.747C57.3406 22.7497 57.9053 21.8843 58.6313 21.151C59.3646 20.4177 60.2446 19.842 61.2713 19.424C62.298 19.006 63.4346 18.797 64.6813 18.797C65.928 18.797 67.061 19.0097 68.0803 19.435C69.107 19.853 69.9833 20.4287 70.7093 21.162C71.4353 21.8953 71.9963 22.7607 72.3923 23.758C72.7956 24.7553 72.9973 25.8297 72.9973 26.981ZM69.1913 26.981C69.1913 26.189 69.0886 25.4777 68.8833 24.847C68.678 24.209 68.381 23.67 67.9923 23.23C67.611 22.79 67.1416 22.4527 66.5843 22.218C66.027 21.9833 65.3926 21.866 64.6813 21.866C63.9626 21.866 63.321 21.9833 62.7563 22.218C62.199 22.4527 61.726 22.79 61.3373 23.23C60.956 23.67 60.6626 24.209 60.4573 24.847C60.252 25.4777 60.1493 26.189 60.1493 26.981C60.1493 27.7803 60.252 28.499 60.4573 29.137C60.6626 29.7677 60.956 30.303 61.3373 30.743C61.726 31.183 62.199 31.5203 62.7563 31.755C63.321 31.9823 63.9626 32.096 64.6813 32.096C65.3926 32.096 66.027 31.9823 66.5843 31.755C67.1416 31.5203 67.611 31.183 67.9923 30.743C68.381 30.303 68.678 29.7677 68.8833 29.137C69.0886 28.499 69.1913 27.7803 69.1913 26.981ZM80.2453 35H76.5053V18.973H80.2453V35ZM93.5123 22.229C93.4023 22.405 93.285 22.537 93.1603 22.625C93.043 22.713 92.889 22.757 92.6983 22.757C92.5296 22.757 92.3463 22.7057 92.1483 22.603C91.9576 22.493 91.7376 22.372 91.4883 22.24C91.2463 22.108 90.9676 21.9907 90.6523 21.888C90.337 21.778 89.9776 21.723 89.5743 21.723C88.8776 21.723 88.357 21.8733 88.0123 22.174C87.675 22.4673 87.5063 22.867 87.5063 23.373C87.5063 23.6957 87.609 23.9633 87.8143 24.176C88.0196 24.3887 88.2873 24.572 88.6173 24.726C88.9546 24.88 89.336 25.023 89.7613 25.155C90.194 25.2797 90.634 25.4227 91.0813 25.584C91.5286 25.738 91.965 25.9213 92.3903 26.134C92.823 26.3467 93.2043 26.618 93.5343 26.948C93.8716 27.278 94.143 27.6813 94.3483 28.158C94.5536 28.6273 94.6563 29.1957 94.6563 29.863C94.6563 30.6037 94.528 31.2967 94.2713 31.942C94.0146 32.5873 93.6406 33.152 93.1493 33.636C92.6653 34.1127 92.064 34.4903 91.3453 34.769C90.634 35.0403 89.8236 35.176 88.9143 35.176C88.4156 35.176 87.906 35.1247 87.3853 35.022C86.872 34.9193 86.3733 34.7763 85.8893 34.593C85.4053 34.4023 84.9506 34.1787 84.5253 33.922C84.1 33.6653 83.7296 33.3793 83.4143 33.064L84.5143 31.326C84.6023 31.2013 84.716 31.0987 84.8553 31.018C85.002 30.93 85.1596 30.886 85.3283 30.886C85.5483 30.886 85.7683 30.9557 85.9883 31.095C86.2156 31.2343 86.4686 31.3883 86.7473 31.557C87.0333 31.7257 87.3596 31.8797 87.7263 32.019C88.093 32.1583 88.5256 32.228 89.0243 32.228C89.699 32.228 90.2233 32.0813 90.5973 31.788C90.9713 31.4873 91.1583 31.0143 91.1583 30.369C91.1583 29.995 91.0556 29.6907 90.8503 29.456C90.645 29.2213 90.3736 29.027 90.0363 28.873C89.7063 28.719 89.3286 28.5833 88.9033 28.466C88.478 28.3487 88.0416 28.2203 87.5943 28.081C87.147 27.9343 86.7106 27.7583 86.2853 27.553C85.86 27.3403 85.4786 27.0653 85.1413 26.728C84.8113 26.3833 84.5436 25.958 84.3383 25.452C84.133 24.9387 84.0303 24.308 84.0303 23.56C84.0303 22.9587 84.1513 22.372 84.3933 21.8C84.6353 21.228 84.991 20.7183 85.4603 20.271C85.9296 19.8237 86.5053 19.468 87.1873 19.204C87.8693 18.9327 88.6503 18.797 89.5303 18.797C90.0216 18.797 90.4983 18.8373 90.9603 18.918C91.4296 18.9913 91.8733 19.105 92.2913 19.259C92.7093 19.4057 93.098 19.5853 93.4573 19.798C93.824 20.0033 94.1503 20.238 94.4363 20.502L93.5123 22.229Z" fill="#0D6CB9"/>
<path d="M122.589 18.973V35H119.311V25.782C119.311 25.5693 119.314 25.3383 119.322 25.089C119.336 24.8397 119.358 24.5867 119.388 24.33L115.131 32.569C114.999 32.8257 114.819 33.02 114.592 33.152C114.372 33.284 114.119 33.35 113.833 33.35H113.327C113.041 33.35 112.784 33.284 112.557 33.152C112.337 33.02 112.161 32.8257 112.029 32.569L107.772 24.308C107.794 24.572 107.812 24.8323 107.827 25.089C107.841 25.3383 107.849 25.5693 107.849 25.782V35H104.571V18.973H107.409C107.57 18.973 107.709 18.9767 107.827 18.984C107.951 18.9913 108.061 19.0133 108.157 19.05C108.252 19.0867 108.336 19.1453 108.41 19.226C108.49 19.2993 108.567 19.4057 108.641 19.545L112.766 27.674C112.912 27.9527 113.052 28.2423 113.184 28.543C113.323 28.8437 113.455 29.1517 113.58 29.467C113.704 29.1443 113.833 28.829 113.965 28.521C114.104 28.213 114.251 27.9197 114.405 27.641L118.519 19.545C118.592 19.4057 118.665 19.2993 118.739 19.226C118.819 19.1453 118.907 19.0867 119.003 19.05C119.098 19.0133 119.204 18.9913 119.322 18.984C119.446 18.9767 119.589 18.973 119.751 18.973H122.589ZM130.75 21.833V25.573H135.788V28.323H130.75V32.14H137.328V35H127.01V18.973H137.328V21.833H130.75ZM144.681 21.833V25.573H149.719V28.323H144.681V32.14H151.259V35H140.941V18.973H151.259V21.833H144.681ZM166.39 21.921H161.88V35H158.162V21.921H153.652V18.973H166.39V21.921Z" fill="#7AB029"/>
<path d="M43.5264 14H31.6784C28.5423 14 26 16.5423 26 19.6784V31.5264C26 34.6625 28.5423 37.2048 31.6784 37.2048H43.5264C46.6625 37.2048 49.2048 34.6625 49.2048 31.5264V19.6784C49.2048 16.5423 46.6625 14 43.5264 14Z" fill="#0D5CB9"/>
<path d="M37.6234 21.9222C37.6234 21.7129 37.5823 21.5057 37.5022 21.3124C37.4222 21.1191 37.3048 20.9435 37.1569 20.7954C37.0089 20.6475 36.8333 20.5301 36.6399 20.4501C36.4466 20.3701 36.2394 20.3289 36.0302 20.329H34.4702C34.2592 20.3263 34.0499 20.3655 33.8542 20.4443C33.6585 20.5231 33.4805 20.64 33.3303 20.7882C33.1802 20.9364 33.0611 21.113 32.9797 21.3076C32.8983 21.5023 32.8564 21.7111 32.8564 21.9221C32.8564 22.133 32.8983 22.3418 32.9797 22.5365C33.0611 22.7311 33.1802 22.9077 33.3303 23.0559C33.4805 23.2041 33.6585 23.321 33.8542 23.3999C34.0499 23.4787 34.2592 23.5179 34.4702 23.5152H34.7755V24.2844C34.7755 24.2844 37.6234 23.8999 37.6234 21.9222ZM36.1731 26.1302C36.1731 26.7129 35.7011 27.1849 35.1183 27.1849C34.5355 27.1849 34.0635 26.7129 34.0635 26.1302C34.0635 25.5474 34.5355 25.0754 35.1183 25.0754C35.7011 25.0754 36.1731 25.5474 36.1731 26.1302ZM35.1183 27.7123C34.3702 27.7123 32.877 28.0894 32.877 28.8375V29.8218H37.3597V28.8375C37.3597 28.0891 35.8664 27.7123 35.1183 27.7123ZM40.1284 27.1849C40.7112 27.1849 41.1832 26.7129 41.1832 26.1302C41.1832 25.5474 40.7112 25.0754 40.1284 25.0754C39.5457 25.0754 39.0737 25.5474 39.0737 26.1302C39.0737 26.7129 39.5457 27.1849 40.1284 27.1849ZM40.1284 27.7123C39.3803 27.7123 37.887 28.0894 37.887 28.8375V29.8218H42.3698V28.8375C42.3698 28.0891 40.8765 27.7123 40.1284 27.7123ZM39.744 20.5927C39.5347 20.5926 39.3275 20.6338 39.1342 20.7138C38.9409 20.7939 38.7652 20.9112 38.6172 21.0592C38.4693 21.2071 38.3519 21.3828 38.2719 21.5761C38.1918 21.7695 38.1507 21.9767 38.1508 22.1859C38.1508 24.1636 40.6822 24.548 40.6822 24.548V23.7789H40.7766C40.9875 23.7816 41.1969 23.7424 41.3926 23.6635C41.5882 23.5847 41.7663 23.4677 41.9164 23.3195C42.0665 23.1713 42.1857 22.9948 42.2671 22.8002C42.3484 22.6056 42.3903 22.3967 42.3903 22.1858C42.3903 21.9748 42.3484 21.7659 42.2671 21.5714C42.1857 21.3767 42.0665 21.2002 41.9164 21.052C41.7663 20.9038 41.5882 20.7869 41.3926 20.708C41.1969 20.6292 40.9875 20.5899 40.7766 20.5927H39.744Z" fill="white"/>
<path d="M47.0964 37.9448C49.2523 37.9448 51 36.1971 51 34.0412C51 31.8853 49.2523 30.1376 47.0964 30.1376C44.9405 30.1376 43.1928 31.8853 43.1928 34.0412C43.1928 36.1971 44.9405 37.9448 47.0964 37.9448Z" fill="#7AB029" stroke="white"/>
<path d="M46.6927 33.0698C46.6927 32.8907 46.5476 32.7456 46.3685 32.7456C46.1895 32.7456 46.0444 32.8907 46.0444 33.0698V34.6907C46.0444 34.8697 46.1895 35.0148 46.3685 35.0148C46.5476 35.0148 46.6927 34.8697 46.6927 34.6907V33.0698Z" fill="white"/>
<path d="M48.6349 33.0698C48.6349 32.8907 48.4897 32.7456 48.3107 32.7456C48.1316 32.7456 47.9865 32.8907 47.9865 33.0698V34.6907C47.9865 34.8697 48.1316 35.0148 48.3107 35.0148C48.4897 35.0148 48.6349 34.8697 48.6349 34.6907V33.0698Z" fill="white"/>
<path d="M47.6638 32.2572C47.6638 32.0781 47.5187 31.933 47.3396 31.933C47.1606 31.933 47.0154 32.0781 47.0154 32.2572V35.661C47.0154 35.84 47.1606 35.9852 47.3396 35.9852C47.5187 35.9852 47.6638 35.84 47.6638 35.661V32.2572Z" fill="white"/>
</svg>
